{
  "asset": {
    "version": "2.0",
    "generator": "monti_test_scene_generator"
  },
  "scene": 0,
  "scenes": [
    {
      "name": "TestScene",
      "nodes": [
        0,
        1,
        2,
        3,
        4
      ]
    }
  ],
  "nodes": [
    {
      "name": "Metal_R0.00",
      "mesh": 0,
      "translation": [
        -3.0,
        0.0,
        0.0
      ]
    },
    {
      "name": "Metal_R0.25",
      "mesh": 1,
      "translation": [
        -1.5,
        0.0,
        0.0
      ]
    },
    {
      "name": "Metal_R0.50",
      "mesh": 2,
      "translation": [
        0.0,
        0.0,
        0.0
      ]
    },
    {
      "name": "Metal_R0.75",
      "mesh": 3,
      "translation": [
        1.5,
        0.0,
        0.0
      ]
    },
    {
      "name": "Metal_R1.00",
      "mesh": 4,
      "translation": [
        3.0,
        0.0,
        0.0
      ]
    }
  ],
  "meshes": [
    {
      "name": "Sphere_Metal_R0.00",
      "primitives": [
        {
          "attributes": {
            "POSITION": 1,
            "NORMAL": 2
          },
          "indices": 0,
          "material": 0
        }
      ]
    },
    {
      "name": "Sphere_Metal_R0.25",
      "primitives": [
        {
          "attributes": {
            "POSITION": 1,
            "NORMAL": 2
          },
          "indices": 0,
          "material": 1
        }
      ]
    },
    {
      "name": "Sphere_Metal_R0.50",
      "primitives": [
        {
          "attributes": {
            "POSITION": 1,
            "NORMAL": 2
          },
          "indices": 0,
          "material": 2
        }
      ]
    },
    {
      "name": "Sphere_Metal_R0.75",
      "primitives": [
        {
          "attributes": {
            "POSITION": 1,
            "NORMAL": 2
          },
          "indices": 0,
          "material": 3
        }
      ]
    },
    {
      "name": "Sphere_Metal_R1.00",
      "primitives": [
        {
          "attributes": {
            "POSITION": 1,
            "NORMAL": 2
          },
          "indices": 0,
          "material": 4
        }
      ]
    }
  ],
  "accessors": [
    {
      "bufferView": 0,
      "componentType": 5123,
      "count": 12288,
      "type": "SCALAR",
      "max": [
        2144
      ],
      "min": [
        0
      ]
    },
    {
      "bufferView": 1,
      "componentType": 5126,
      "count": 2145,
      "type": "VEC3",
      "max": [
        0.5,
        0.5,
        0.5
      ],
      "min": [
        -0.5,
        -0.5,
        -0.5
      ]
    },
    {
      "bufferView": 2,
      "componentType": 5126,
      "count": 2145,
      "type": "VEC3",
      "max": [
        1.0,
        1.0,
        1.0
      ],
      "min": [
        -1.0,
        -1.0,
        -1.0
      ]
    }
  ],
  "bufferViews": [
    {
      "buffer": 0,
      "byteOffset": 0,
      "byteLength": 24576,
      "target": 34963
    },
    {
      "buffer": 0,
      "byteOffset": 24576,
      "byteLength": 25740,
      "target": 34962
    },
    {
      "buffer": 0,
      "byteOffset": 50316,
      "byteLength": 25740,
      "target": 34962
    }
  ],
  "buffers": [
    {
      "uri": "data:application/octet-stream;base64,",
      "byteLength": 76056
    }
  ],
  "materials": [
    {
      "name": "Metal_R0.00",
      "pbrMetallicRoughness": {
        "baseColorFactor": [
          1.0,
          1.0,
          1.0,
          1.0
        ],
        "metallicFactor": 1.0,
        "roughnessFactor": 0.0
      }
    },
    {
      "name": "Metal_R0.25",
      "pbrMetallicRoughness": {
        "baseColorFactor": [
          1.0,
          1.0,
          1.0,
          1.0
        ],
        "metallicFactor": 1.0,
        "roughnessFactor": 0.25
      }
    },
    {
      "name": "Metal_R0.50",
      "pbrMetallicRoughness": {
        "baseColorFactor": [
          1.0,
          1.0,
          1.0,
          1.0
        ],
        "metallicFactor": 1.0,
        "roughnessFactor": 0.5
      }
    },
    {
      "name": "Metal_R0.75",
      "pbrMetallicRoughness": {
        "baseColorFactor": [
          1.0,
          1.0,
          1.0,
          1.0
        ],
        "metallicFactor": 1.0,
        "roughnessFactor": 0.75
      }
    },
    {
      "name": "Metal_R1.00",
      "pbrMetallicRoughness": {
        "baseColorFactor": [
          1.0,
          1.0,
          1.0,
          1.0
        ],
        "metallicFactor": 1.0,
        "roughnessFactor": 1.0
      }
    }
  ]
}